<svg width="64" height="64" viewBox="0 0 64 64" fill="none" xmlns="http://www.w3.org/2000/svg">
<g id="photo.tv 1">
<g id="Group">
<path id="Vector" d="M58.3372 41.9741L44.4298 28.9466C43.4028 27.9899 42.1798 27.5254 40.9076 27.5254C39.6462 27.5254 38.4744 27.9665 37.4004 28.9232L24.9064 40.0818H26.7645L20.524 34.4629C19.5589 33.5765 18.4765 33.1312 17.3792 33.1312C16.2758 33.1312 15.3059 33.5723 14.36 34.4394L5.49545 42.3862C5.49545 45.7841 7.07278 47.5635 10.0479 47.5635H52.9222C56.5653 47.5635 58.3372 45.5451 58.3372 41.9741ZM21.9917 29.4979C25.0465 29.4979 27.5731 26.9671 27.5731 23.8312C27.5731 20.7805 25.0465 18.2263 21.9917 18.2263C18.8942 18.2263 16.3484 20.7805 16.3484 23.8312C16.3484 26.9671 18.8942 29.4979 21.9917 29.4979ZM8.46217 49.5294H55.144C59.3539 49.5294 61.6062 47.2963 61.6062 43.0673V16.056C61.6062 11.8462 59.3539 9.61304 55.144 9.61304H8.46217C4.25234 9.61304 2 11.8462 2 16.056V43.0673C2 47.2963 4.25234 49.5294 8.46217 49.5294ZM8.72654 45.0473C7.23028 45.0473 6.48216 44.316 6.48216 42.8221V16.3204C6.48216 14.8072 7.23028 14.0952 8.72654 14.0952H54.8755C56.3717 14.0952 57.1198 14.8072 57.1198 16.3204V42.8221C57.1198 44.316 56.3717 45.0473 54.8755 45.0473H8.72654ZM19.8116 57.7279H43.7904C44.9567 57.7279 45.9209 56.766 45.9209 55.6058C45.9209 54.4457 44.9567 53.4796 43.7904 53.4796H19.8116C18.6495 53.4796 17.6853 54.4457 17.6853 55.6058C17.6853 56.766 18.6495 57.7279 19.8116 57.7279Z" fill="#AEAEB6"/>
</g>
</g>
</svg>
